<?xml version="1.0" encoding="utf-8"?>
<!-- Generator: Adobe Illustrator 21.0.0, SVG Export Plug-In . SVG Version: 6.00 Build 0)  -->
<svg version="1.1" id="图层_1" xmlns="http://www.w3.org/2000/svg" xmlns:xlink="http://www.w3.org/1999/xlink" x="0px" y="0px"
	 viewBox="0 0 1081 400" style="enable-background:new 0 0 1081 400;" xml:space="preserve">
<style type="text/css">
	.st0{fill:url(#SVGID_1_);}
	.st1{opacity:0.81;fill:url(#SVGID_2_);}
	.st2{opacity:0.81;fill:url(#SVGID_3_);}
	.st3{opacity:0.81;fill:url(#SVGID_4_);}
	.st4{opacity:0.81;fill:url(#SVGID_5_);}
</style>
<title>未标题-1</title>
<linearGradient id="SVGID_1_" gradientUnits="userSpaceOnUse" x1="291.2305" y1="-634.6088" x2="1404.1951" y2="-649.5626" gradientTransform="matrix(1 0 0 -1 0 -437.958)">
	<stop  offset="0.3962" style="stop-color:#F14E24"/>
	<stop  offset="0.8039" style="stop-color:#F48321"/>
	<stop  offset="1" style="stop-color:#F77A1E"/>
</linearGradient>
<rect class="st0" width="1081" height="400"/>
<linearGradient id="SVGID_2_" gradientUnits="userSpaceOnUse" x1="881.0429" y1="-412.1906" x2="360.493" y2="-1013.8607" gradientTransform="matrix(1 0 0 -1 1 -437.958)">
	<stop  offset="0" style="stop-color:#FF0000;stop-opacity:0"/>
	<stop  offset="0.5842" style="stop-color:#FF0000;stop-opacity:0.8"/>
	<stop  offset="1" style="stop-color:#C60000;stop-opacity:0"/>
</linearGradient>
<path class="st1" d="M1027.3,336.5l-18.6,5.5c-68.9,20.3-180.5,20.3-249.4,0l0,0c-26.8-7.9-70.3-7.9-97.1,0l-31.5,9.3
	c-26.8,7.9-70.3,7.9-97.1,0L519,347c-76.8-22.6-201.3-22.6-278.1,0l0,0c-53.8,15.9-141,15.9-194.8,0l0,0c-15.1-4.3-30.5-7.3-46.1-9
	v62h1081v-69.3C1061.8,330.2,1042,332.2,1027.3,336.5z"/>
<linearGradient id="SVGID_3_" gradientUnits="userSpaceOnUse" x1="1032.7273" y1="-761.2009" x2="222.1986" y2="-868.767" gradientTransform="matrix(1 0 0 -1 1 -437.958)">
	<stop  offset="0" style="stop-color:#FF5A00"/>
	<stop  offset="0.2896" style="stop-color:#F42E00;stop-opacity:0.83"/>
	<stop  offset="0.5866" style="stop-color:#FF0000;stop-opacity:0.41"/>
	<stop  offset="1" style="stop-color:#FF4C00;stop-opacity:0"/>
</linearGradient>
<path class="st2" d="M16.5,376.2l8-1.7c36-7.7,94.8-7.7,130.8,0l0,0c36,7.7,94.8,7.7,130.8,0l0,0c51.3-11,135.3-11,186.6,0l9.8,2.1
	c17.9,3.8,47.3,3.8,65.2,0l21.2-4.5c17.9-3.8,47.3-3.8,65.2,0l0,0c46,9.8,121.3,9.8,167.4,0l12.5-2.7c17.9-3.8,47.3-3.8,65.2,0
	l58.1,12.4c17.9,3.8,47.3,3.8,65.2,0l0,0c29-6.2,78.7-1.8,78.7,7v11.5H3v-17.1C3,380.5,7.9,378,16.5,376.2z"/>
<linearGradient id="SVGID_4_" gradientUnits="userSpaceOnUse" x1="1101.9227" y1="346.8271" x2="-12.5347" y2="371.3485">
	<stop  offset="0" style="stop-color:#FF0000;stop-opacity:0"/>
	<stop  offset="0.1931" style="stop-color:#FF2B00;stop-opacity:0.2"/>
	<stop  offset="0.5078" style="stop-color:#DC0800;stop-opacity:0.6"/>
	<stop  offset="0.8227" style="stop-color:#FF0D00;stop-opacity:0.56"/>
	<stop  offset="1" style="stop-color:#FF1900;stop-opacity:0.6"/>
</linearGradient>
<path class="st3" d="M13.5,336.4l8-4.5c36.2-20.4,94.9-20.4,131.1,0l0,0c36.2,20.4,94.9,20.4,131.1,0l0,0
	c51.7-29.1,135.5-29.1,187.2,0l9.8,5.5c18.1,10.1,47.3,10.1,65.4,0l21.2-11.9c18.1-10.1,47.3-10.1,65.4,0l0,0
	c46.3,26.1,121.5,26.1,167.8,0l12.5-7c18.1-10.1,47.3-10.1,65.4,0l58.2,32.7c18.1,10.1,47.3,10.1,65.4,0l0,0
	c29.1-16.4,78.9-4.8,78.9,18.4V400H0v-45.2C0,347.9,4.9,341.2,13.5,336.4z"/>
<linearGradient id="SVGID_5_" gradientUnits="userSpaceOnUse" x1="747.4984" y1="-598.2753" x2="403.8705" y2="-995.4527" gradientTransform="matrix(1 0 0 -1 1 -437.958)">
	<stop  offset="0" style="stop-color:#AA0E00;stop-opacity:0"/>
	<stop  offset="0.587" style="stop-color:#DB0D00"/>
	<stop  offset="1" style="stop-color:#C20000;stop-opacity:0.4"/>
</linearGradient>
<path class="st4" d="M15.2,388.4l9.4-3.9c42.6-17.6,111.6-17.6,154.2,0l0,0c42.6,17.6,111.6,17.6,154.2,0l0,0
	c60.8-25.1,159.3-25.1,220.1,0l11.6,4.8c21.2,8.7,55.7,8.7,76.9,0l24.9-10.3c21.2-8.7,55.7-8.7,76.9,0l0,0
	c54.5,22.5,142.9,22.5,197.4,0l14.7-6.1c21.2-8.7,55.7-8.7,76.9,0l48.6,27.8H0C0,400.7,7.1,391.8,15.2,388.4z"/>
</svg>
